<?xml version="1.0" encoding="utf-8"?>
<!-- Generator: Adobe Illustrator 24.1.0, SVG Export Plug-In . SVG Version: 6.00 Build 0)  -->
<svg version="1.1" id="Capa_1" xmlns="http://www.w3.org/2000/svg" xmlns:xlink="http://www.w3.org/1999/xlink" x="0px" y="0px"
	 viewBox="0 0 62.6 41.2" style="enable-background:new 0 0 62.6 41.2;" xml:space="preserve">
<style type="text/css">
	.st0{stroke:#000000;stroke-miterlimit:10;}
	.st1{fill:none;stroke:#000000;stroke-width:1.73;stroke-linecap:round;stroke-linejoin:round;}
</style>
<path class="st0" d="M36.5,1.6C38,3.1,35,4.4,35.2,4.8c0.4,0.8,2.2,4.5,2.7,5.5l1.2-0.5c-0.5-0.7-2.6-4.9-2.4-5.1
	c1.4-0.9,1.7-2.6,0.8-3.9c0,0,0,0,0,0c-0.1-0.1-0.2-0.3-0.3-0.4c-2.4-2.5-9.8,1.1-9.8,1.1s-0.5,1.7,1.8,0.5S35,0,36.5,1.6z"/>
<path class="st0" d="M32.4,0.2c0.2,0.4,0,0.9-0.4,1.1l-4.8,1.8c-0.5,0.1-1-0.1-1.2-0.5L26,2.4c-0.2-0.4,0-0.9,0.4-1.1l4.8-1.8
	c0.5-0.1,1,0.1,1.2,0.5L32.4,0.2z"/>
<path class="st0" d="M49.3,13.5c-5.7,1.1-9.5,6.2-8.3,11.4v0.2c1.5,5.3,7.3,8.5,13.1,7.3c5.7-1.1,9.5-6.2,8.3-11.4
	c0-0.1,0-0.1,0-0.2C61,15.5,55.1,12.3,49.3,13.5z M53.8,31.1c-5,1.1-10-1.7-11.3-6.3c-1.1-4.5,2-8.9,6.9-9.9c0,0,0,0,0,0h0.2
	c5-1.1,10,1.7,11.3,6.3c1.1,4.5-2,8.9-6.9,9.9L53.8,31.1L53.8,31.1z"/>
<path class="st0" d="M10.6,21.4c-5.7,1.1-9.5,6.1-8.3,11.4c0,0,0,0,0,0c0,0.1,0,0.1,0,0.2c1.5,5.3,7.3,8.5,13.1,7.3
	c5.7-1.1,9.5-6.2,8.3-11.4v-0.2C22.3,23.4,16.4,20.1,10.6,21.4z M15.2,38.9c-5,1-10-1.8-11.2-6.3c-1.1-4.5,2-8.9,6.9-9.9H11
	c5-1.1,10,1.7,11.3,6.3c1.1,4.5-2,8.9-6.9,9.9c0,0,0,0,0,0L15.2,38.9z"/>
<path class="st0" d="M52,23.1c-8-5.4-10.7-9.4-13.3-15l-1.7,1.1l0.5,0.7c0,1.3-2.7,12.2-11.1,14.1l-5.1-7.5l-1.1,0.2l1,1.5
	l-8.3,12.3c-0.4,0.1-0.7,0.5-0.6,0.8c0,0,0,0,0,0c0.1,0.4,0.5,0.6,1,0.5h0.2c0.3-0.1,0.6-0.4,0.5-0.8c1.6-2.5,6.5-10.2,7.9-11.8
	l7.5,11.6l0,0c0,0,0,0.1,0,0.1c0.1,0.3,0.5,0.6,0.9,0.5c0.4-0.1,0.6-0.4,0.5-0.8l0,0c0-0.1-0.1-0.2-0.1-0.2l10.2-16
	c3,4.1,5.4,6.1,10.4,9.5c0.1,0.3,0.4,0.4,0.7,0.3c0.3-0.1,0.5-0.4,0.5-0.7l0,0C52.4,23.4,52.2,23.2,52,23.1z M30,29.4
	c-0.6-0.9-1.7-2.6-2.6-4c3.2-1.3,9.5-5.4,11.1-14.3l1.6,2.2L30,29.4z"/>
<path class="st0" d="M15.4,17.6c-0.3-0.7,0-1.6,0.8-1.9c0,0,0,0,0,0l0.1-0.1c2.3-0.7,4.7-1.2,7.2-1.6c1.1-0.1,1.6,0.5,1.4,1
	c-0.2,0.5-1.9,0.8-2.7,1.2c-0.8,0.4-0.6,1.1-2.4,1.6C18,18.4,15.9,18.5,15.4,17.6z"/>
<path class="st0" d="M27.7,30c-0.4,1.2,0.4,2.4,1.7,2.7c0,0,0,0,0,0l0,0c1.3,0.3,2.6-0.3,3-1.5l0,0c0.4-1.2-0.4-2.4-1.7-2.7
	C29.4,28.1,28,28.8,27.7,30L27.7,30z"/>
<path class="st0" d="M10.7,31.6c0.3,1.1,1.6,1.8,2.8,1.6c1.3-0.2,2.1-1.3,1.8-2.5c0,0,0,0,0,0l0,0c-0.4-1.1-1.7-1.8-3-1.4
	C11.3,29.6,10.6,30.6,10.7,31.6L10.7,31.6z"/>
<path class="st0" d="M49.4,23.9c0.3,1.1,1.6,1.9,2.9,1.6c1.2-0.2,2.1-1.3,1.8-2.5v-0.1c-0.3-1.2-1.6-1.9-2.8-1.7
	C49.9,21.5,49.1,22.7,49.4,23.9z"/>
<line class="st1" x1="16.8" y1="15.9" x2="3.4" y2="19.6"/>
<line class="st1" x1="17.8" y1="17.1" x2="9.1" y2="19.5"/>
</svg>
