<svg xmlns="http://www.w3.org/2000/svg" viewBox="0 0 269.52 41.19"><defs><style>.cls-1,.cls-2{stroke:#000;}.cls-1{stroke-linecap:round;stroke-linejoin:round;stroke-width:1.73px;}.cls-2{stroke-miterlimit:10;}.cls-3{font-size:21.69px;font-family:LatinWide, Wide Latin;}</style></defs><g id="Capa_2" data-name="Capa 2"><g id="Capa_1-2" data-name="Capa 1"><polygon class="cls-1" points="16.65 40.32 61.76 40.32 61.76 30.86 16.65 40.32"/><polygon class="cls-2" points="38.52 40.32 61.76 40.32 61.76 35.45 38.52 40.32"/><text/><text/><path class="cls-2" d="M36.3,2.42C37.54,3.88,35,5,35.23,5.37c.31.69,1.85,4.13,2.26,5.07l1-.44c-.46-.66-2.21-4.5-2-4.71a2.56,2.56,0,0,0,.36-3.91c-2-2.26-8.25,1-8.25,1s-.46,1.54,1.48.5S35.06,1,36.3,2.42Z"/><path class="cls-2" d="M32.85,1.16a.76.76,0,0,1-.34,1l-4,1.64a.79.79,0,0,1-1-.47l-.06-.14a.76.76,0,0,1,.34-1l4-1.64a.81.81,0,0,1,1,.47Z"/><path class="cls-2" d="M47,13.43a8.91,8.91,0,0,0-6.9,10.67,9.2,9.2,0,0,0,11,6.7A8.91,8.91,0,0,0,58,20.13,9.19,9.19,0,0,0,47,13.43Zm3.81,16.14a7.89,7.89,0,0,1-9.45-5.75,7.65,7.65,0,0,1,5.93-9.17,7.9,7.9,0,0,1,9.45,5.76A7.63,7.63,0,0,1,50.85,29.57Z"/><path class="cls-2" d="M14.6,20.63A8.89,8.89,0,0,0,7.69,31.29a9.19,9.19,0,0,0,11,6.7A8.9,8.9,0,0,0,25.6,27.32,9.19,9.19,0,0,0,14.6,20.63Zm3.81,16.14A7.91,7.91,0,0,1,9,31a7.65,7.65,0,0,1,5.94-9.16,7.89,7.89,0,0,1,9.45,5.75A7.66,7.66,0,0,1,18.41,36.77Z"/><path class="cls-2" d="M49.26,22.26c-6.67-5-9-8.6-11.12-13.8l-1.39.95.41.63c0,1.18-2.3,11.18-9.3,13l-4.24-6.92-.93.2.81,1.37L16.52,29a.64.64,0,0,0-.46.77.67.67,0,0,0,.81.5l.09,0h0a.66.66,0,0,0,.42-.72c1.34-2.32,5.48-9.37,6.65-10.86l6.28,10.64h0a.25.25,0,0,0,0,.08.6.6,0,0,0,.72.43.58.58,0,0,0,.45-.69.38.38,0,0,0-.11-.2l8.51-14.67c2.52,3.73,4.56,5.61,8.7,8.71a.53.53,0,0,0,.61.31.52.52,0,0,0,.41-.62A.54.54,0,0,0,49.26,22.26Zm-18.4,5.79c-.51-.85-1.44-2.42-2.21-3.67,2.69-1.15,8-5,9.31-13.11l1.32,2Z"/><path class="cls-2" d="M18.58,17.13a1.31,1.31,0,0,1,.81-1.77,45.71,45.71,0,0,1,6-1.45c.89-.09,1.34.47,1.18.91s-1.64.71-2.27,1.09-.49,1-2,1.51S19,18,18.58,17.13Z"/><path class="cls-2" d="M28.92,28.54A2,2,0,0,0,30.35,31a2,2,0,0,0,2.51-1.39,2,2,0,0,0-1.43-2.43A2,2,0,0,0,28.92,28.54Z"/><path class="cls-2" d="M14.68,30a2,2,0,0,0,2.39,1.46,1.94,1.94,0,0,0,1.51-2.32,2,2,0,0,0-2.4-1.46A2,2,0,0,0,14.68,30Z"/><path class="cls-2" d="M47.08,22.93a2,2,0,0,0,2.39,1.46A1.94,1.94,0,0,0,51,22.07a2,2,0,0,0-2.4-1.46A2,2,0,0,0,47.08,22.93Z"/><line class="cls-1" x1="19.81" y1="15.62" x2="8.54" y2="19.02"/><line class="cls-1" x1="20.62" y1="16.71" x2="13.29" y2="18.92"/><line class="cls-1" x1="9.73" y1="24.32" x2="2.39" y2="26.53"/><line class="cls-1" x1="8.78" y1="26.3" x2="5.46" y2="27.3"/><line class="cls-1" x1="8.07" y1="30.28" x2="4.75" y2="31.28"/><line class="cls-1" x1="9.12" y1="33.82" x2="5.8" y2="34.82"/><line class="cls-1" x1="12.49" y1="36.7" x2="9.17" y2="37.7"/><line class="cls-1" x1="8.2" y1="28.2" x2="0.86" y2="30.42"/><line class="cls-1" x1="40.89" y1="24.44" x2="34.61" y2="26.33"/><line class="cls-1" x1="41.72" y1="26.43" x2="38.4" y2="27.44"/><line class="cls-1" x1="45.34" y1="29.78" x2="42.02" y2="30.78"/><line class="cls-1" x1="43.24" y1="28.2" x2="35.91" y2="30.42"/><line class="cls-1" x1="8.41" y1="32.1" x2="1.08" y2="34.32"/><line class="cls-1" x1="10.83" y1="35.59" x2="3.5" y2="37.8"/><line class="cls-1" x1="15.53" y1="37.62" x2="8.2" y2="39.84"/><text class="cls-3" transform="translate(70.24 30.18) scale(0.72 1)">STRAVIATEC</text></g></g></svg>